<svg xmlns="http://www.w3.org/2000/svg" viewBox="0 0 800 600" preserveAspectRatio="xMidYMid slice"><defs>
<linearGradient id="sky" x1="0" y1="0" x2="0" y2="1"><stop offset="0" stop-color="#d4eaf2"/><stop offset="1" stop-color="#eef5ec"/></linearGradient>
<linearGradient id="water" x1="0" y1="0" x2="0" y2="1"><stop offset="0" stop-color="#3DA6D9"/><stop offset="0.5" stop-color="#0E81B8"/><stop offset="1" stop-color="#1F4660"/></linearGradient>
<linearGradient id="green" x1="0" y1="0" x2="0" y2="1"><stop offset="0" stop-color="#8DBE38"/><stop offset="1" stop-color="#4C7A06"/></linearGradient>
<linearGradient id="greenD" x1="0" y1="0" x2="0" y2="1"><stop offset="0" stop-color="#4C7A06"/><stop offset="1" stop-color="#3A5E04"/></linearGradient>
<linearGradient id="navy" x1="0" y1="0" x2="0" y2="1"><stop offset="0" stop-color="#2a5a7a"/><stop offset="1" stop-color="#1F4660"/></linearGradient>
</defs><rect width="800" height="600" fill="url(#sky)"/><rect y="150" width="800" height="450" fill="url(#water)"/>
<g opacity="0.4" fill="#fff"><path d="M80 250 L500 250 L485 278 L65 278 Z"/><path d="M150 360 L600 360 L585 388 L135 388 Z"/><path d="M60 460 L420 460 L408 486 L48 486 Z"/></g>
<g fill="url(#greenD)"><ellipse cx="70" cy="130" rx="80" ry="55"/><ellipse cx="730" cy="130" rx="85" ry="58"/><ellipse cx="400" cy="115" rx="70" ry="48"/></g></svg>