<svg xmlns="http://www.w3.org/2000/svg" viewBox="0 0 800 600" preserveAspectRatio="xMidYMid slice"><defs>
<linearGradient id="sky" x1="0" y1="0" x2="0" y2="1"><stop offset="0" stop-color="#d4eaf2"/><stop offset="1" stop-color="#eef5ec"/></linearGradient>
<linearGradient id="water" x1="0" y1="0" x2="0" y2="1"><stop offset="0" stop-color="#3DA6D9"/><stop offset="0.5" stop-color="#0E81B8"/><stop offset="1" stop-color="#1F4660"/></linearGradient>
<linearGradient id="green" x1="0" y1="0" x2="0" y2="1"><stop offset="0" stop-color="#8DBE38"/><stop offset="1" stop-color="#4C7A06"/></linearGradient>
<linearGradient id="greenD" x1="0" y1="0" x2="0" y2="1"><stop offset="0" stop-color="#4C7A06"/><stop offset="1" stop-color="#3A5E04"/></linearGradient>
<linearGradient id="navy" x1="0" y1="0" x2="0" y2="1"><stop offset="0" stop-color="#2a5a7a"/><stop offset="1" stop-color="#1F4660"/></linearGradient>
</defs><rect width="800" height="600" fill="url(#sky)"/><path d="M0 220 Q400 170 800 220 L800 600 L0 600 Z" fill="url(#green)"/>
<path d="M0 300 Q400 260 800 300 L800 600 L0 600 Z" fill="url(#greenD)" opacity="0.65"/>
<rect x="395" y="160" width="16" height="110" rx="6" fill="#6b4f2a"/><circle cx="403" cy="135" r="68" fill="url(#greenD)"/><circle cx="360" cy="165" r="46" fill="url(#green)"/><circle cx="448" cy="165" r="46" fill="url(#green)"/>
<g fill="url(#greenD)"><circle cx="140" cy="240" r="62"/><circle cx="670" cy="230" r="66"/></g>
<g><circle cx="280" cy="430" r="12" fill="#f0a830"/><circle cx="330" cy="460" r="12" fill="#e8623a"/><circle cx="500" cy="440" r="12" fill="#f5c542"/><circle cx="540" cy="470" r="12" fill="#f0a830"/></g></svg>