<svg xmlns="http://www.w3.org/2000/svg" viewBox="0 0 800 600" preserveAspectRatio="xMidYMid slice"><defs>
<linearGradient id="sky" x1="0" y1="0" x2="0" y2="1"><stop offset="0" stop-color="#d4eaf2"/><stop offset="1" stop-color="#eef5ec"/></linearGradient>
<linearGradient id="water" x1="0" y1="0" x2="0" y2="1"><stop offset="0" stop-color="#3DA6D9"/><stop offset="0.5" stop-color="#0E81B8"/><stop offset="1" stop-color="#1F4660"/></linearGradient>
<linearGradient id="green" x1="0" y1="0" x2="0" y2="1"><stop offset="0" stop-color="#8DBE38"/><stop offset="1" stop-color="#4C7A06"/></linearGradient>
<linearGradient id="greenD" x1="0" y1="0" x2="0" y2="1"><stop offset="0" stop-color="#4C7A06"/><stop offset="1" stop-color="#3A5E04"/></linearGradient>
<linearGradient id="navy" x1="0" y1="0" x2="0" y2="1"><stop offset="0" stop-color="#2a5a7a"/><stop offset="1" stop-color="#1F4660"/></linearGradient>
</defs><rect width="800" height="600" fill="url(#sky)"/>
<rect y="430" width="800" height="170" fill="url(#green)"/>
<rect y="470" width="800" height="130" fill="url(#greenD)" opacity="0.6"/>
<!-- farola jardin -->
<rect x="385" y="220" width="20" height="250" rx="8" fill="#1F4660"/>
<path d="M360 220 Q395 170 430 220 Z" fill="#1F4660"/>
<circle cx="395" cy="205" r="34" fill="#f5c542"/>
<circle cx="395" cy="205" r="34" fill="#fff8e6" opacity="0.5"/>
<g stroke="#f5c542" stroke-width="5" opacity="0.6"><line x1="395" y1="120" x2="395" y2="150"/><line x1="320" y1="205" x2="350" y2="205"/><line x1="440" y1="205" x2="470" y2="205"/><line x1="340" y1="155" x2="362" y2="172"/><line x1="450" y1="155" x2="428" y2="172"/></g>
<!-- segunda luz pequena -->
<rect x="630" y="330" width="14" height="140" rx="6" fill="#1F4660"/>
<circle cx="637" cy="320" r="22" fill="#f5c542"/>
<g fill="url(#greenD)"><circle cx="140" cy="430" r="50"/><circle cx="720" cy="440" r="44"/></g></svg>