<svg xmlns="http://www.w3.org/2000/svg" viewBox="0 0 800 600" preserveAspectRatio="xMidYMid slice"><defs>
<linearGradient id="sky" x1="0" y1="0" x2="0" y2="1"><stop offset="0" stop-color="#d4eaf2"/><stop offset="1" stop-color="#eef5ec"/></linearGradient>
<linearGradient id="water" x1="0" y1="0" x2="0" y2="1"><stop offset="0" stop-color="#3DA6D9"/><stop offset="0.5" stop-color="#0E81B8"/><stop offset="1" stop-color="#1F4660"/></linearGradient>
<linearGradient id="green" x1="0" y1="0" x2="0" y2="1"><stop offset="0" stop-color="#8DBE38"/><stop offset="1" stop-color="#4C7A06"/></linearGradient>
<linearGradient id="greenD" x1="0" y1="0" x2="0" y2="1"><stop offset="0" stop-color="#4C7A06"/><stop offset="1" stop-color="#3A5E04"/></linearGradient>
<linearGradient id="navy" x1="0" y1="0" x2="0" y2="1"><stop offset="0" stop-color="#2a5a7a"/><stop offset="1" stop-color="#1F4660"/></linearGradient>
</defs><rect width="800" height="600" fill="url(#sky)"/>
<rect y="430" width="800" height="170" fill="url(#green)" opacity="0.5"/>
<!-- casa -->
<rect x="220" y="250" width="360" height="230" fill="#f3f0e9"/>
<path d="M200 250 L400 130 L600 250 Z" fill="url(#navy)"/>
<rect x="270" y="320" width="70" height="70" fill="url(#water)" opacity="0.85"/>
<rect x="460" y="320" width="70" height="70" fill="url(#water)" opacity="0.85"/>
<rect x="370" y="370" width="60" height="110" fill="url(#greenD)"/>
<!-- andamio -->
<g stroke="#1F4660" stroke-width="7" opacity="0.55" fill="none"><rect x="180" y="240" width="80" height="240"/><line x1="180" y1="320" x2="260" y2="320"/><line x1="180" y1="400" x2="260" y2="400"/></g>
<!-- sol -->
<circle cx="660" cy="140" r="46" fill="#f5c542" opacity="0.7"/></svg>