<svg xmlns="http://www.w3.org/2000/svg" viewBox="0 0 800 600" preserveAspectRatio="xMidYMid slice"><defs>
<linearGradient id="sky" x1="0" y1="0" x2="0" y2="1"><stop offset="0" stop-color="#d4eaf2"/><stop offset="1" stop-color="#eef5ec"/></linearGradient>
<linearGradient id="water" x1="0" y1="0" x2="0" y2="1"><stop offset="0" stop-color="#3DA6D9"/><stop offset="0.5" stop-color="#0E81B8"/><stop offset="1" stop-color="#1F4660"/></linearGradient>
<linearGradient id="green" x1="0" y1="0" x2="0" y2="1"><stop offset="0" stop-color="#8DBE38"/><stop offset="1" stop-color="#4C7A06"/></linearGradient>
<linearGradient id="greenD" x1="0" y1="0" x2="0" y2="1"><stop offset="0" stop-color="#4C7A06"/><stop offset="1" stop-color="#3A5E04"/></linearGradient>
<linearGradient id="navy" x1="0" y1="0" x2="0" y2="1"><stop offset="0" stop-color="#2a5a7a"/><stop offset="1" stop-color="#1F4660"/></linearGradient>
</defs><rect width="800" height="600" fill="url(#sky)"/>
<path d="M0 250 Q400 200 800 250 L800 600 L0 600 Z" fill="url(#green)"/>
<path d="M0 320 Q400 280 800 320 L800 600 L0 600 Z" fill="url(#greenD)" opacity="0.7"/>
<!-- arbusto recortado -->
<g fill="url(#greenD)"><circle cx="150" cy="240" r="80"/><circle cx="120" cy="290" r="60"/><circle cx="200" cy="290" r="60"/></g>
<g fill="url(#green)"><circle cx="650" cy="220" r="70"/><circle cx="690" cy="270" r="55"/><circle cx="610" cy="270" r="55"/></g>
<!-- arbol -->
<rect x="395" y="180" width="18" height="120" rx="6" fill="#6b4f2a"/>
<circle cx="404" cy="150" r="75" fill="url(#greenD)"/><circle cx="360" cy="180" r="50" fill="url(#green)"/><circle cx="450" cy="180" r="50" fill="url(#green)"/>
<!-- flores -->
<g><circle cx="300" cy="450" r="13" fill="#f0a830"/><circle cx="340" cy="480" r="13" fill="#e8623a"/><circle cx="470" cy="460" r="13" fill="#f0a830"/><circle cx="510" cy="490" r="13" fill="#e8623a"/><circle cx="380" cy="500" r="13" fill="#f5c542"/></g></svg>