<svg xmlns="http://www.w3.org/2000/svg" viewBox="0 0 800 600" preserveAspectRatio="xMidYMid slice"><defs>
<linearGradient id="sky" x1="0" y1="0" x2="0" y2="1"><stop offset="0" stop-color="#d4eaf2"/><stop offset="1" stop-color="#eef5ec"/></linearGradient>
<linearGradient id="water" x1="0" y1="0" x2="0" y2="1"><stop offset="0" stop-color="#3DA6D9"/><stop offset="0.5" stop-color="#0E81B8"/><stop offset="1" stop-color="#1F4660"/></linearGradient>
<linearGradient id="green" x1="0" y1="0" x2="0" y2="1"><stop offset="0" stop-color="#8DBE38"/><stop offset="1" stop-color="#4C7A06"/></linearGradient>
<linearGradient id="greenD" x1="0" y1="0" x2="0" y2="1"><stop offset="0" stop-color="#4C7A06"/><stop offset="1" stop-color="#3A5E04"/></linearGradient>
<linearGradient id="navy" x1="0" y1="0" x2="0" y2="1"><stop offset="0" stop-color="#2a5a7a"/><stop offset="1" stop-color="#1F4660"/></linearGradient>
</defs><rect width="800" height="600" fill="url(#sky)"/>
<rect x="80" y="160" width="170" height="320" fill="url(#navy)"/>
<rect x="300" y="100" width="150" height="380" fill="#2a5a7a"/>
<rect x="500" y="180" width="180" height="300" fill="url(#navy)"/>
<g fill="#cfe4ef" opacity="0.7"><rect x="105" y="190" width="32" height="32"/><rect x="160" y="190" width="32" height="32"/><rect x="105" y="250" width="32" height="32"/><rect x="160" y="250" width="32" height="32"/><rect x="325" y="140" width="34" height="34"/><rect x="385" y="140" width="34" height="34"/><rect x="325" y="210" width="34" height="34"/><rect x="385" y="210" width="34" height="34"/><rect x="535" y="220" width="32" height="32"/><rect x="600" y="220" width="32" height="32"/></g>
<rect y="480" width="800" height="120" fill="url(#green)"/>
<rect x="300" y="500" width="240" height="70" rx="10" fill="url(#water)"/>
<g fill="url(#greenD)"><circle cx="120" cy="500" r="38"/><circle cx="700" cy="505" r="42"/></g></svg>