<svg xmlns="http://www.w3.org/2000/svg" viewBox="0 0 800 600" preserveAspectRatio="xMidYMid slice"><defs>
<linearGradient id="sky" x1="0" y1="0" x2="0" y2="1"><stop offset="0" stop-color="#d4eaf2"/><stop offset="1" stop-color="#eef5ec"/></linearGradient>
<linearGradient id="water" x1="0" y1="0" x2="0" y2="1"><stop offset="0" stop-color="#3DA6D9"/><stop offset="0.5" stop-color="#0E81B8"/><stop offset="1" stop-color="#1F4660"/></linearGradient>
<linearGradient id="green" x1="0" y1="0" x2="0" y2="1"><stop offset="0" stop-color="#8DBE38"/><stop offset="1" stop-color="#4C7A06"/></linearGradient>
<linearGradient id="greenD" x1="0" y1="0" x2="0" y2="1"><stop offset="0" stop-color="#4C7A06"/><stop offset="1" stop-color="#3A5E04"/></linearGradient>
<linearGradient id="navy" x1="0" y1="0" x2="0" y2="1"><stop offset="0" stop-color="#2a5a7a"/><stop offset="1" stop-color="#1F4660"/></linearGradient>
</defs><rect width="800" height="600" fill="url(#sky)"/>
<path d="M0 200 Q400 150 800 200 L800 380 L0 380 Z" fill="url(#green)"/>
<rect y="360" width="800" height="240" fill="url(#water)"/>
<g opacity="0.38" fill="#fff"><path d="M70 430 L470 430 L456 456 L56 456 Z"/><path d="M130 510 L560 510 L546 536 L116 536 Z"/></g>
<!-- seto recortado perfecto -->
<g fill="url(#greenD)"><rect x="40" y="150" width="150" height="90" rx="20"/><rect x="610" y="150" width="150" height="90" rx="20"/></g>
<!-- arbol topiario -->
<rect x="392" y="120" width="16" height="90" rx="6" fill="#6b4f2a"/><circle cx="400" cy="110" r="52" fill="url(#greenD)"/>
<!-- sol calido -->
<circle cx="680" cy="90" r="40" fill="#f5c542" opacity="0.65"/></svg>